<svg xmlns="http://www.w3.org/2000/svg" xmlns:xlink="http://www.w3.org/1999/xlink" xmlns:sketch="http://www.bohemiancoding.com/sketch/ns" viewBox="0 0 61 113.75" version="1.1" x="0px" y="0px"><title>location</title><desc>Created with Sketch.</desc><g stroke="none" stroke-width="1" fill="none" fill-rule="evenodd" sketch:type="MSPage"><path d="M33.2310971,78.7493358 C33.2310971,78.7493358 60.6473489,47.3809866 60.6473489,30.8124441 C60.6473489,14.2439016 47.2158914,0.81244413 30.6473489,0.81244413 C14.0788064,0.81244413 0.647348871,14.2439016 0.647348871,30.8124441 C0.647348871,47.3809866 28.0765969,78.7650418 28.0765969,78.7650418 C29.496384,80.4480756 31.8050023,80.4564513 33.2310971,78.7493358 Z M30.6473489,45.8124441 C38.9316201,45.8124441 45.6473489,39.0967154 45.6473489,30.8124441 C45.6473489,22.5281729 38.9316201,15.8124441 30.6473489,15.8124441 C22.3630776,15.8124441 15.6473489,22.5281729 15.6473489,30.8124441 C15.6473489,39.0967154 22.3630776,45.8124441 30.6473489,45.8124441 L30.6473489,45.8124441 Z M1.64734887,79.8124441 C1.64734887,86.4828092 14.6362535,90.8124441 30.6473489,90.8124441 C46.6584442,90.8124441 59.6473489,86.4828092 59.6473489,79.8124441 C59.6473489,75.3420964 54.1367519,72.0710175 45.4483954,70.1913552 C44.3688017,69.957793 43.3042785,70.6436371 43.0707164,71.7232307 C42.8371542,72.8028244 43.5229982,73.8673475 44.6025919,74.1009097 C51.542636,75.6023374 55.6473489,78.0388864 55.6473489,79.8124441 C55.6473489,83.0832045 44.45963,86.8124441 30.6473489,86.8124441 C16.8350677,86.8124441 5.64734887,83.0832045 5.64734887,79.8124441 C5.64734887,78.0116882 9.85755349,75.5524259 16.8989159,74.1051809 C17.9808685,73.882802 18.6776907,72.8254324 18.4553118,71.7434798 C18.2329329,70.6615273 17.1755633,69.9647051 16.0936107,70.187084 C7.28985881,71.9965613 1.64734887,75.2924609 1.64734887,79.8124441 L1.64734887,79.8124441 Z" fill="#000000" sketch:type="MSShapeGroup"/></g><text x="0" y="106" fill="#000000" font-size="5px" font-weight="bold" font-family="'Helvetica Neue', Helvetica, Arial-Unicode, Arial, Sans-serif">Created by Julynn B.</text><text x="0" y="111" fill="#000000" font-size="5px" font-weight="bold" font-family="'Helvetica Neue', Helvetica, Arial-Unicode, Arial, Sans-serif">from the Noun Project</text></svg>