<svg xmlns="http://www.w3.org/2000/svg" viewBox="0 0 64 80" x="0px" y="0px"><g><path d="M39.36,50.43C45.95,43.75,55,33.1,55,25A23,23,0,0,0,9,25c0,8.1,9.05,18.75,15.64,25.43C18.68,51.17,13,52.93,13,56c0,3.94,9.56,6,19,6s19-2.06,19-6C51,52.93,45.32,51.17,39.36,50.43ZM11,25a21,21,0,0,1,42,0c0,10.4-17.39,26.45-21,29.67C28.39,51.45,11,35.4,11,25ZM40.89,55.5C40.13,56.1,36.9,57,32,57s-8.13-.9-8.89-1.5c.5-.38,2.16-1.02,5.37-1.33,1.59,1.49,2.68,2.43,2.87,2.59a1,1,0,0,0,1.3,0c.19-.16,1.28-1.1,2.87-2.59C38.73,54.48,40.39,55.12,40.89,55.5ZM32,60c-11,0-17-2.64-17-4,0-.96,3.38-3.02,11.47-3.75l.14.14c-2.67.4-5.61,1.27-5.61,3.11,0,3.4,9.87,3.5,11,3.5s11-.1,11-3.5c0-1.84-2.94-2.71-5.61-3.11l.14-.14C45.62,52.98,49,55.04,49,56,49,57.36,43,60,32,60Z"/><path d="M32,8A17,17,0,1,0,49,25,17.024,17.024,0,0,0,32,8Zm0,32A15,15,0,1,1,47,25,15.018,15.018,0,0,1,32,40Z"/><path d="M43,17H21a1,1,0,0,0-1,1V32a1,1,0,0,0,1,1H43a1,1,0,0,0,1-1V18A1,1,0,0,0,43,17ZM42,31H22V21.68l9.52,5.2a1.02,1.02,0,0,0,.96,0L42,21.68Zm0-11.59L32,24.86,22,19.41V19H42Z"/></g><text x="0" y="79" fill="#000000" font-size="5px" font-weight="bold" font-family="'Helvetica Neue', Helvetica, Arial-Unicode, Arial, Sans-serif">Created by ic2icon</text><text x="0" y="84" fill="#000000" font-size="5px" font-weight="bold" font-family="'Helvetica Neue', Helvetica, Arial-Unicode, Arial, Sans-serif">from the Noun Project</text></svg>